<svg width="949" height="256" xmlns="http://www.w3.org/2000/svg">

 <g>
  <title>background</title>
  <rect fill="none" id="canvas_background" height="402" width="582" y="-1" x="-1"/>
 </g>
 <g>
  <title>Layer 1</title>
  <defs>
   <style type="text/css"/>
  </defs>
  <g stroke="null" id="svg_15">
   <path stroke="null" id="svg_9" fill="#2D527C" d="m145.459074,223.555512l-106.518698,0c-3.446977,0 -6.242561,-2.548893 -6.242561,-5.693462l0,-106.744015a6.241262,5.692277 0 0 1 2.321646,-4.429871l77.059247,-56.73132a6.243859,5.694646 0 0 1 7.842263,0l77.059247,56.731714a6.242128,5.693067 0 0 1 2.321646,4.429871l0,106.444401c0,3.144569 -2.795151,5.693462 -6.242561,5.693462s-6.242561,-2.548893 -6.242561,-5.693462l0,-103.723792l-70.816686,-52.135654l-70.817552,52.135654l0,98.32955l100.27657,0c3.446977,0 6.242561,2.548893 6.242561,5.693462s-2.794718,5.693462 -6.242561,5.693462z"/>
   <path stroke="null" id="svg_10" fill="#2D527C" d="m213.585352,104.279013a6.214427,5.667803 0 0 1 -3.904035,-1.253722l-93.681261,-68.587204l-93.681693,68.586809c-2.687811,1.967428 -6.617383,1.576627 -8.775423,-0.876342c-2.158473,-2.452179 -1.728682,-6.035314 0.959994,-8.003531l97.589191,-71.447159a6.242561,5.693462 0 0 1 7.815428,0l97.589191,71.447554c2.688677,1.968612 3.1189,5.551352 0.959994,8.003531a6.228278,5.680435 0 0 1 -4.871387,2.130064z"/>
   <path stroke="null" id="svg_11" fill="#CEE8FA" d="m116.000489,103.427934m-18.588747,0a18.588747,16.95367 0 1 0 37.177494,0a18.588747,16.95367 0 1 0 -37.177494,0z"/>
   <path stroke="null" id="svg_12" fill="#2D527C" d="m116.000056,126.07625c-13.692256,0 -24.830442,-10.159254 -24.830442,-22.646737s11.139052,-22.646737 24.830442,-22.646737s24.830442,10.159254 24.830442,22.646737s-11.139052,22.646737 -24.830442,22.646737zm0,-33.906946c-6.807391,0 -12.345754,5.051205 -12.345754,11.260209s5.538363,11.260209 12.345754,11.260209s12.345754,-5.051205 12.345754,-11.260209s-5.538363,-11.260209 -12.345754,-11.260209z"/>
   <path stroke="null" id="svg_13" fill="#CEE8FA" d="m86.54277,149.99921l58.921931,0l0,67.864419l-58.921931,0l0,-67.864419z"/>
   <path stroke="null" id="svg_14" fill="#2D527C" d="m145.459074,223.555512l-58.918901,0c-3.446977,0 -6.242561,-2.548893 -6.242561,-5.693462l0,-67.865209c0,-3.144569 2.795151,-5.693462 6.242561,-5.693462l58.918901,0c3.446977,0 6.242561,2.548893 6.242561,5.693462l0,67.865603c0,3.144174 -2.794718,5.693067 -6.242561,5.693067zm-52.67634,-11.386528l46.434212,0l0,-56.47868l-46.434212,0l0,56.47868zm101.329187,-125.452738c-3.446977,0 -6.242561,-2.548893 -6.242561,-5.693462l0,-30.638426l-12.345754,0c-3.446977,0 -6.242561,-2.548893 -6.242561,-5.693462s2.795151,-5.693462 6.242561,-5.693462l18.587881,0c3.446977,0 6.242561,2.548893 6.242561,5.693462l0,36.332282c0,3.144174 -2.795151,5.693067 -6.242128,5.693067z"/>
  </g>
  <text font-weight="normal" stroke="null" transform="matrix(4.438827610751428,0,0,7.986483523176331,-858.0550236698796,-430.9268498916606) " xml:space="preserve" text-anchor="start" font-family="Arvo, sans-serif" font-size="24" id="svg_17" y="80.241677" x="247.992792" stroke-width="0" fill="#2D527C">Schieh's Blog</text>
 </g>
</svg>